<?xml version="1.0" encoding="UTF-8"?> <svg xmlns="http://www.w3.org/2000/svg" width="365.031" height="108.969" viewBox="0 0 365.031 108.969"><defs><style> .cls-1, .cls-2 { fill: #fff; } .cls-1, .cls-2, .cls-3 { fill-rule: evenodd; } .cls-2 { opacity: 0.5; } .cls-3 { fill: #ee344e; } </style></defs><path id="WildDale" class="cls-1" d="M180.618,18.584a2.82,2.82,0,0,0-1.3,1.634l-8.84,26.829,0.9-.564-7.32-18.375a3.425,3.425,0,0,0-1.239-1.606,3.69,3.69,0,0,0-3.829,0,3.789,3.789,0,0,0-1.3,1.606l-7.995,19.22,1.238,0.056L141.99,20.219a2.847,2.847,0,0,0-1.266-1.634,3.8,3.8,0,0,0-2-.564,3.933,3.933,0,0,0-2.506.986,3.269,3.269,0,0,0-1.211,2.677,4.349,4.349,0,0,0,.169,1.127L146.27,55.5a2.753,2.753,0,0,0,1.239,1.55,3.985,3.985,0,0,0,1.8.592,3.6,3.6,0,0,0,1.887-.564,3.708,3.708,0,0,0,1.436-1.634l8.221-18.6-0.507-.338,8.333,18.938a3.708,3.708,0,0,0,1.436,1.634,3.6,3.6,0,0,0,1.886.564,3.886,3.886,0,0,0,1.83-.592,2.787,2.787,0,0,0,1.211-1.55l11.093-32.691a4.349,4.349,0,0,0,.169-1.127,3.305,3.305,0,0,0-1.183-2.677,3.825,3.825,0,0,0-2.477-.986A3.933,3.933,0,0,0,180.618,18.584Zm16.61,12.344a3.383,3.383,0,0,0-.957-2.452,3.465,3.465,0,0,0-4.843,0,3.379,3.379,0,0,0-.957,2.452V54.206a3.376,3.376,0,0,0,.957,2.452,3.465,3.465,0,0,0,4.843,0,3.38,3.38,0,0,0,.957-2.452V30.928Zm-0.676-7.694a2.546,2.546,0,0,0,.845-2.226V19.937a2.653,2.653,0,0,0-.788-2.2,4.6,4.6,0,0,0-2.76-.62,4.819,4.819,0,0,0-2.674.592,2.5,2.5,0,0,0-.873,2.226v1.071a2.647,2.647,0,0,0,.788,2.2,4.468,4.468,0,0,0,2.7.62A4.932,4.932,0,0,0,196.552,23.234Zm14.921-3.861a3.436,3.436,0,0,0-.929-2.452,3.142,3.142,0,0,0-2.393-.986,3.369,3.369,0,0,0-3.435,3.438V54.206a3.377,3.377,0,0,0,.958,2.452,3.162,3.162,0,0,0,2.365.986,3.368,3.368,0,0,0,3.434-3.438V19.373Zm29.28-2.452a3.379,3.379,0,0,0-.957,2.452V34.479l2.027-.733a3.638,3.638,0,0,0-.817-1.944,10.684,10.684,0,0,0-2.308-2.283,13.315,13.315,0,0,0-3.519-1.86,13.02,13.02,0,0,0-4.449-.733,12.4,12.4,0,0,0-6.869,2,14.222,14.222,0,0,0-4.927,5.524A17.423,17.423,0,0,0,217.1,42.6a17.292,17.292,0,0,0,1.83,8.088,14.048,14.048,0,0,0,4.983,5.524,12.86,12.86,0,0,0,7.038,2,10.962,10.962,0,0,0,3.97-.7,13.112,13.112,0,0,0,3.182-1.719,10.754,10.754,0,0,0,2.139-2.057,3.171,3.171,0,0,0,.789-1.775l-1.239-.507v2.762a3.376,3.376,0,0,0,.957,2.452,3.464,3.464,0,0,0,4.842,0,3.381,3.381,0,0,0,.958-2.452V19.373a3.359,3.359,0,0,0-.958-2.48,3.28,3.28,0,0,0-2.421-.958A3.232,3.232,0,0,0,240.753,16.921ZM227.521,50.768a8.358,8.358,0,0,1-2.9-3.382,10.8,10.8,0,0,1-1.042-4.791,10.936,10.936,0,0,1,1.042-4.847,8.37,8.37,0,0,1,2.9-3.382,7.531,7.531,0,0,1,4.279-1.24,7.632,7.632,0,0,1,4.336,1.24,8.377,8.377,0,0,1,2.9,3.382,10.95,10.95,0,0,1,1.041,4.847,10.813,10.813,0,0,1-1.041,4.791,8.366,8.366,0,0,1-2.9,3.382,7.626,7.626,0,0,1-4.336,1.24A7.524,7.524,0,0,1,227.521,50.768ZM257.194,18.19a1.733,1.733,0,0,0-1.689,1.691V55.953a1.733,1.733,0,0,0,1.689,1.691h14.359a15.2,15.2,0,0,0,9.262-2.677,15.975,15.975,0,0,0,5.406-7.158,26.663,26.663,0,0,0,1.773-9.892,27.736,27.736,0,0,0-.985-7.44A19.6,19.6,0,0,0,284,24.136a14.168,14.168,0,0,0-5.153-4.368,15.981,15.981,0,0,0-7.291-1.578H257.194Zm1.52,36.129,0.338,0.564V21.008l-0.394.507h12.331a13.161,13.161,0,0,1,6.11,1.325,11.415,11.415,0,0,1,4.167,3.607,15.921,15.921,0,0,1,2.365,5.242,24.982,24.982,0,0,1,.76,6.228,23.733,23.733,0,0,1-1.38,8.257A12.729,12.729,0,0,1,278.7,52.12a12.532,12.532,0,0,1-7.715,2.2H258.714Zm58.56-24.969a1.8,1.8,0,0,0-.45,1.24v7.158l1.182,0.846a9.005,9.005,0,0,0-.9-3.917,11.07,11.07,0,0,0-2.477-3.354,11.816,11.816,0,0,0-3.689-2.311,12.632,12.632,0,0,0-11.233,1.071,13.551,13.551,0,0,0-4.73,5.27,16.546,16.546,0,0,0-1.745,7.75,17.037,17.037,0,0,0,1.717,7.722,13.546,13.546,0,0,0,4.73,5.411,12.107,12.107,0,0,0,6.785,1.973,11.328,11.328,0,0,0,4.476-.874,12.26,12.26,0,0,0,3.576-2.283,11.607,11.607,0,0,0,2.393-3.044,6.786,6.786,0,0,0,.873-3.213l-0.957.451v6.707a1.723,1.723,0,0,0,.45,1.184,1.571,1.571,0,0,0,1.239.507,1.733,1.733,0,0,0,1.689-1.691V30.59a1.741,1.741,0,0,0-.479-1.24,1.593,1.593,0,0,0-1.21-.507A1.571,1.571,0,0,0,317.274,29.35ZM301.48,53.5a10.291,10.291,0,0,1-3.632-4.284,14.1,14.1,0,0,1-1.3-6.115,13.452,13.452,0,0,1,1.323-6.087,10.412,10.412,0,0,1,3.66-4.171,9.435,9.435,0,0,1,5.265-1.522,9.162,9.162,0,0,1,5.293,1.578,10.937,10.937,0,0,1,3.632,4.227,13.2,13.2,0,0,1,1.323,5.975,13.868,13.868,0,0,1-1.323,6.115,10.581,10.581,0,0,1-3.632,4.284,9.272,9.272,0,0,1-5.293,1.55A9.4,9.4,0,0,1,301.48,53.5Zm31.278-35.875a1.671,1.671,0,0,0-.479-1.184,1.593,1.593,0,0,0-1.21-.507,1.731,1.731,0,0,0-1.689,1.691V55.953a1.67,1.67,0,0,0,.478,1.184,1.594,1.594,0,0,0,1.211.507,1.733,1.733,0,0,0,1.689-1.691V17.626Zm27.366,39.088a15.163,15.163,0,0,0,4.392-3.523,1.554,1.554,0,0,0,.563-1.184,1.448,1.448,0,0,0-.423-1.014,1.371,1.371,0,0,0-1.041-.451,1.9,1.9,0,0,0-1.183.507,10.992,10.992,0,0,1-2,1.945,10.124,10.124,0,0,1-2.787,1.494,10.3,10.3,0,0,1-3.491.564,11.378,11.378,0,0,1-6.137-1.578,10.437,10.437,0,0,1-3.886-4.284,13.3,13.3,0,0,1-1.351-6.031,14.005,14.005,0,0,1,.9-5.27,10.858,10.858,0,0,1,2.337-3.664,9.09,9.09,0,0,1,3.209-2.114,9.685,9.685,0,0,1,3.463-.676,10.087,10.087,0,0,1,4.308.958,9.623,9.623,0,0,1,3.519,2.818,8.592,8.592,0,0,1,1.745,4.509v1.127L363,40.171H340.81l0.676,3.044h22.579a1.666,1.666,0,0,0,1.183-.479,1.531,1.531,0,0,0,.506-1.156,14.4,14.4,0,0,0-1.182-5.749,13.375,13.375,0,0,0-2.928-4.2,12.066,12.066,0,0,0-4.139-2.593,13.65,13.65,0,0,0-4.814-.874A12.107,12.107,0,0,0,346.3,30a13.832,13.832,0,0,0-4.9,5.214,16.539,16.539,0,0,0-1.886,8.173,15.682,15.682,0,0,0,1.858,7.778,13.219,13.219,0,0,0,5.181,5.185,15.4,15.4,0,0,0,7.657,1.86A12.029,12.029,0,0,0,360.124,56.714Z" transform="translate(-0.719 -0.531)"></path><path id="Awesome_Safari" data-name="Awesome Safari" class="cls-2" d="M155.564,93.526l-8.986-20.276a1.022,1.022,0,0,0-.417-0.495,1.165,1.165,0,0,0-.633-0.185,1.015,1.015,0,0,0-1.019.68l-9.016,20.276a0.865,0.865,0,0,0,.2.943,0.924,0.924,0,0,0,.633.232,0.91,0.91,0,0,0,.865-0.587l2.378-5.378h11.98l2.347,5.378a0.986,0.986,0,0,0,.355.433,0.855,0.855,0,0,0,.479.154,0.98,0.98,0,0,0,.648-0.232,0.714,0.714,0,0,0,.278-0.572,0.832,0.832,0,0,0-.092-0.371h0Zm-10-18.422,5.249,11.962H140.279Zm34.121,4.76-4.57,12.178-4.6-12.116a1.079,1.079,0,0,0-.386-0.525,0.971,0.971,0,0,0-.571-0.186A0.994,0.994,0,0,0,169,79.4a1.032,1.032,0,0,0-.4.525l-4.662,12.147-4.509-12.24a0.8,0.8,0,0,0-.8-0.587,1.05,1.05,0,0,0-.7.278,0.835,0.835,0,0,0-.324.649,1.018,1.018,0,0,0,.061.309l5.188,13.445a1,1,0,0,0,.417.525,1.173,1.173,0,0,0,1.266,0,1.015,1.015,0,0,0,.417-0.525L169.49,82.12l4.57,11.807a1,1,0,0,0,.417.525,1.173,1.173,0,0,0,1.266,0,1.015,1.015,0,0,0,.417-0.525l5.156-13.476a1.881,1.881,0,0,0,.062-0.309,0.8,0.8,0,0,0-.278-0.618,0.944,0.944,0,0,0-.648-0.247,0.781,0.781,0,0,0-.772.587h0Zm17.106,11.467a2.208,2.208,0,0,0-.957.464,14.8,14.8,0,0,1-1.914.943,6.064,6.064,0,0,1-2.224.355,5.109,5.109,0,0,1-3.921-1.484,6.421,6.421,0,0,1-1.482-4.327H196.57a1.06,1.06,0,0,0,.8-0.263,1.161,1.161,0,0,0,.247-0.819,7.415,7.415,0,0,0-1.683-5.146,5.859,5.859,0,0,0-4.585-1.87,6.863,6.863,0,0,0-3.659.974,6.546,6.546,0,0,0-2.471,2.751,9.125,9.125,0,0,0-.88,4.1,7.9,7.9,0,0,0,1.977,5.687,7.112,7.112,0,0,0,5.4,2.071,9.005,9.005,0,0,0,4.694-1.329,1.758,1.758,0,0,0,1.05-1.329,0.8,0.8,0,0,0-.2-0.541,0.614,0.614,0,0,0-.479-0.232h0Zm-5.434-10.6a4.153,4.153,0,0,1,3.3,1.344,5.866,5.866,0,0,1,1.235,3.817h-9.542a6.25,6.25,0,0,1,1.544-3.8,4.558,4.558,0,0,1,3.459-1.36h0Zm15.624,14.033a7,7,0,0,0,4.215-1.159,3.872,3.872,0,0,0,1.1-5.023,3.9,3.9,0,0,0-1.636-1.329,16.152,16.152,0,0,0-3.273-1.051,12.661,12.661,0,0,1-2.27-.7A2.652,2.652,0,0,1,204,84.686a2,2,0,0,1-.324-1.175,2.336,2.336,0,0,1,.957-1.963,4.14,4.14,0,0,1,2.563-.726,5.273,5.273,0,0,1,2.085.356,9.406,9.406,0,0,1,1.652.943,1.96,1.96,0,0,0,.957.495,0.613,0.613,0,0,0,.478-0.232,0.8,0.8,0,0,0,.2-0.541,1.978,1.978,0,0,0-1.081-1.453,5.9,5.9,0,0,0-1.9-.9,8.448,8.448,0,0,0-2.3-.309,6.279,6.279,0,0,0-4.014,1.221,3.883,3.883,0,0,0-1.544,3.2,3.237,3.237,0,0,0,1.158,2.612,9.448,9.448,0,0,0,3.906,1.592,15.071,15.071,0,0,1,2.47.7,2.946,2.946,0,0,1,1.235.835,1.938,1.938,0,0,1,.371,1.221,2.137,2.137,0,0,1-1.019,1.9,5.173,5.173,0,0,1-2.841.664,6.493,6.493,0,0,1-2.362-.371,10.037,10.037,0,0,1-1.837-.958,2.2,2.2,0,0,0-.958-0.464,0.63,0.63,0,0,0-.478.216,0.745,0.745,0,0,0-.2.525,1.042,1.042,0,0,0,.232.665,3.8,3.8,0,0,0,.818.7,8.126,8.126,0,0,0,2.208.974,9.284,9.284,0,0,0,2.547.355h0Zm16.458,0a6.809,6.809,0,0,0,3.613-.958,6.3,6.3,0,0,0,2.424-2.72,10.377,10.377,0,0,0,0-8.222,6.3,6.3,0,0,0-2.424-2.72,7.319,7.319,0,0,0-7.241,0,6.427,6.427,0,0,0-2.424,2.72,10.212,10.212,0,0,0,0,8.222,6.422,6.422,0,0,0,2.424,2.72,6.786,6.786,0,0,0,3.628.958h0ZM223.4,93.093a4.4,4.4,0,0,1-3.643-1.576,7.109,7.109,0,0,1-1.266-4.544,7.075,7.075,0,0,1,1.3-4.528,4.885,4.885,0,0,1,7.272,0,7.024,7.024,0,0,1,1.312,4.528,6.985,6.985,0,0,1-1.3,4.544,4.491,4.491,0,0,1-3.675,1.576h0Zm27.668-13.909a5.869,5.869,0,0,0-3.057.788,4.879,4.879,0,0,0-1.977,2.179q-1.05-2.967-4.6-2.967a5.42,5.42,0,0,0-2.826.726,4.7,4.7,0,0,0-1.868,2.117V80.173a0.954,0.954,0,0,0-.232-0.68,0.864,0.864,0,0,0-.663-0.247,0.97,0.97,0,0,0-.7.247,0.93,0.93,0,0,0-.263.711V93.742a0.9,0.9,0,0,0,.958.958,0.889,0.889,0,0,0,.679-0.263,0.976,0.976,0,0,0,.247-0.7V85.86a5.344,5.344,0,0,1,1.189-3.647,4.029,4.029,0,0,1,3.2-1.36,3.089,3.089,0,0,1,2.563,1,5.25,5.25,0,0,1,.8,3.261v8.624a0.9,0.9,0,0,0,.958.958,0.889,0.889,0,0,0,.679-0.263,0.976,0.976,0,0,0,.247-0.7V85.86a5.344,5.344,0,0,1,1.189-3.647,4.029,4.029,0,0,1,3.2-1.36,3.089,3.089,0,0,1,2.563,1,5.25,5.25,0,0,1,.8,3.261v8.624a0.9,0.9,0,0,0,.958.958,0.889,0.889,0,0,0,.679-0.263,0.976,0.976,0,0,0,.247-0.7V84.995q0-5.811-4.971-5.811h0Zm21.923,12.147a2.208,2.208,0,0,0-.957.464,14.8,14.8,0,0,1-1.914.943,6.064,6.064,0,0,1-2.224.355,5.109,5.109,0,0,1-3.921-1.484,6.421,6.421,0,0,1-1.482-4.327h10.282a1.06,1.06,0,0,0,.8-0.263,1.166,1.166,0,0,0,.247-0.819,7.415,7.415,0,0,0-1.683-5.146,5.859,5.859,0,0,0-4.585-1.87,6.863,6.863,0,0,0-3.659.974,6.546,6.546,0,0,0-2.471,2.751,9.125,9.125,0,0,0-.88,4.1,7.9,7.9,0,0,0,1.976,5.687,7.116,7.116,0,0,0,5.4,2.071,9.005,9.005,0,0,0,4.694-1.329,1.758,1.758,0,0,0,1.05-1.329,0.8,0.8,0,0,0-.2-0.541,0.614,0.614,0,0,0-.479-0.232h0Zm-5.434-10.6a4.153,4.153,0,0,1,3.3,1.344,5.866,5.866,0,0,1,1.235,3.817h-9.542a6.25,6.25,0,0,1,1.544-3.8,4.557,4.557,0,0,1,3.459-1.36h0Zm26.185,14.064a10.262,10.262,0,0,0,4.06-.757,6.277,6.277,0,0,0,2.748-2.133,5.3,5.3,0,0,0,.973-3.137,4.206,4.206,0,0,0-1-2.952,6.074,6.074,0,0,0-2.455-1.623q-1.45-.525-3.952-1.144l-0.8-.186a19.658,19.658,0,0,1-2.825-.9,4.727,4.727,0,0,1-1.776-1.252,3.035,3.035,0,0,1-.679-2.055,3.881,3.881,0,0,1,1.544-3.276,6.947,6.947,0,0,1,4.292-1.174,8.673,8.673,0,0,1,3.165.525,11.752,11.752,0,0,1,3.011,1.886,1.224,1.224,0,0,0,.71.309,0.575,0.575,0,0,0,.448-0.247,0.906,0.906,0,0,0,.2-0.587,1.244,1.244,0,0,0-.4-0.9,8.1,8.1,0,0,0-3.119-1.994,11.5,11.5,0,0,0-4.014-.7,9.979,9.979,0,0,0-4.045.773,6.319,6.319,0,0,0-2.733,2.179,5.544,5.544,0,0,0-.972,3.23,4.573,4.573,0,0,0,1.08,3.2,6.7,6.7,0,0,0,2.64,1.777,30.63,30.63,0,0,0,4.092,1.144,25.984,25.984,0,0,1,3.057.85,5.08,5.08,0,0,1,1.883,1.159,2.635,2.635,0,0,1,.741,1.947,3.74,3.74,0,0,1-1.528,3.2,7.2,7.2,0,0,1-4.338,1.128,10.265,10.265,0,0,1-6.763-2.411,1.232,1.232,0,0,0-.71-0.309,0.575,0.575,0,0,0-.448.247,0.9,0.9,0,0,0-.2.587,1.116,1.116,0,0,0,.4.9,8.309,8.309,0,0,0,3.319,1.963,13.464,13.464,0,0,0,4.4.726h0Zm18.218-15.609a10.557,10.557,0,0,0-2.625.34,9.655,9.655,0,0,0-2.408.958,1.762,1.762,0,0,0-1.081,1.329,0.837,0.837,0,0,0,.2.572,0.642,0.642,0,0,0,.509.232,1.251,1.251,0,0,0,.664-0.263l0.479-.325a8.514,8.514,0,0,1,4.353-1.206,3.333,3.333,0,0,1,2.625.943,4.43,4.43,0,0,1,.834,2.983v1.144h-0.649a30.081,30.081,0,0,0-5.589.4,5.267,5.267,0,0,0-2.871,1.329,3.659,3.659,0,0,0-.865,2.6,4.116,4.116,0,0,0,.695,2.318,4.677,4.677,0,0,0,1.9,1.638,5.981,5.981,0,0,0,2.655.587A5.32,5.32,0,0,0,313.63,94a4.859,4.859,0,0,0,1.884-2.148v1.855a0.972,0.972,0,0,0,.247.7,1.009,1.009,0,0,0,1.358,0,0.972,0.972,0,0,0,.248-0.7V84.9a6.052,6.052,0,0,0-1.344-4.3,5.334,5.334,0,0,0-4.06-1.422h0Zm-1.019,13.94a3.609,3.609,0,0,1-2.44-.85,2.711,2.711,0,0,1-.988-2.148,2.266,2.266,0,0,1,.649-1.746,4.258,4.258,0,0,1,2.223-.85,31.372,31.372,0,0,1,4.539-.247h0.587V88.3a4.847,4.847,0,0,1-1.282,3.462,4.315,4.315,0,0,1-3.288,1.36h0Zm18.095-18.793,0.8-.062a0.823,0.823,0,0,0,.9-0.835q0-.8-1.2-0.711l-0.8.062a5.269,5.269,0,0,0-3.814,1.731,6.386,6.386,0,0,0-1.312,4.265v0.773h-2.347a0.79,0.79,0,0,0-.586.216,0.751,0.751,0,0,0-.217.556,0.7,0.7,0,0,0,.217.541,0.823,0.823,0,0,0,.586.2H323.6V93.742a0.961,0.961,0,0,0,.247.711,0.917,0.917,0,0,0,.679.247,0.956,0.956,0,0,0,.68-0.263,0.913,0.913,0,0,0,.278-0.7V81.069h3.736a0.872,0.872,0,0,0,.617-0.2,0.7,0.7,0,0,0,.217-0.541,0.755,0.755,0,0,0-.217-0.556,0.836,0.836,0,0,0-.617-0.216h-3.736V78.411a4.287,4.287,0,0,1,.895-2.983,3.817,3.817,0,0,1,2.656-1.1h0Zm9.912,4.853a10.557,10.557,0,0,0-2.625.34,9.678,9.678,0,0,0-2.409.958,1.762,1.762,0,0,0-1.08,1.329,0.841,0.841,0,0,0,.2.572,0.645,0.645,0,0,0,.51.232,1.251,1.251,0,0,0,.664-0.263l0.478-.325a8.52,8.52,0,0,1,4.354-1.206,3.333,3.333,0,0,1,2.625.943,4.43,4.43,0,0,1,.834,2.983v1.144h-0.649a30.081,30.081,0,0,0-5.589.4,5.271,5.271,0,0,0-2.872,1.329,3.663,3.663,0,0,0-.864,2.6,4.108,4.108,0,0,0,.695,2.318,4.677,4.677,0,0,0,1.9,1.638,5.975,5.975,0,0,0,2.655.587A5.324,5.324,0,0,0,340.618,94a4.865,4.865,0,0,0,1.884-2.148v1.855a0.972,0.972,0,0,0,.247.7,1.009,1.009,0,0,0,1.358,0,0.972,0.972,0,0,0,.247-0.7V84.9a6.052,6.052,0,0,0-1.343-4.3,5.334,5.334,0,0,0-4.06-1.422h0Zm-1.019,13.94a3.609,3.609,0,0,1-2.44-.85,2.711,2.711,0,0,1-.988-2.148,2.269,2.269,0,0,1,.648-1.746,4.266,4.266,0,0,1,2.224-.85,31.372,31.372,0,0,1,4.539-.247H342.5V88.3a4.847,4.847,0,0,1-1.282,3.462,4.316,4.316,0,0,1-3.288,1.36h0Zm18.9-13.878-0.432.031a5.169,5.169,0,0,0-4.694,2.905V80.173a0.919,0.919,0,0,0-.247-0.68,0.877,0.877,0,0,0-.648-0.247,0.972,0.972,0,0,0-.695.247,0.93,0.93,0,0,0-.262.711V93.742a0.929,0.929,0,0,0,.262.711,0.972,0.972,0,0,0,.695.247,0.918,0.918,0,0,0,.679-0.247,0.961,0.961,0,0,0,.247-0.711V85.736a5.015,5.015,0,0,1,1.065-3.184,4.48,4.48,0,0,1,3.258-1.576l0.927-.093a0.849,0.849,0,0,0,.926-0.865,0.726,0.726,0,0,0-.247-0.618,1.31,1.31,0,0,0-.834-0.154h0ZM361.862,94.7a0.921,0.921,0,0,0,.68-0.247,0.965,0.965,0,0,0,.247-0.711V80.2a0.966,0.966,0,0,0-.247-0.711,0.92,0.92,0,0,0-.68-0.247,0.969,0.969,0,0,0-.694.247,0.927,0.927,0,0,0-.263.711V93.742a0.926,0.926,0,0,0,.263.711,0.969,0.969,0,0,0,.694.247h0Zm0-18.947a1.39,1.39,0,0,0,1-.371,1.271,1.271,0,0,0,.386-0.958,1.31,1.31,0,0,0-.386-0.989,1.543,1.543,0,0,0-2.007,0,1.306,1.306,0,0,0-.386.989,1.267,1.267,0,0,0,.386.958,1.386,1.386,0,0,0,1,.371h0Z" transform="translate(-0.719 -0.531)"></path><path class="cls-3" d="M109.431,28.957l-14.085,0L96.315,24.1c0.144-.034.288-0.073,0.431-0.121l14.178-4.737a4.736,4.736,0,0,0-2.989-8.988l-9.49,3.171L99.886,6.2a4.726,4.726,0,1,0-9.268-1.858L86.172,26.623,83.009,29.8l-9.036,4.529,2.234-8.956a4.727,4.727,0,1,0-9.169-2.3L62.312,42.019c0,0.018-.008.037-0.012,0.056s-0.013.059-.019,0.089q-0.037.168-.061,0.338c0,0.025-.008.049-0.011,0.074-0.016.125-.025,0.25-0.031,0.376,0,0.043,0,.086,0,0.129s0,0.059,0,.088v9.474a4.738,4.738,0,0,0,.172,1.252,25.815,25.815,0,0,1-9.8,0,4.742,4.742,0,0,0,.172-1.252V43.168c0-.03,0-0.059,0-0.088s0-.086,0-0.129c-0.006-.126-0.015-0.251-0.031-0.376,0-.025-0.008-0.049-0.011-0.074q-0.024-.17-0.061-0.338C52.6,42.134,52.6,42.1,52.589,42.075s-0.008-.037-0.012-0.056L47.851,23.071a4.727,4.727,0,1,0-9.169,2.3l2.234,8.956L31.88,29.8l-3.163-3.174L24.271,4.342A4.726,4.726,0,1,0,15,6.2l1.441,7.222-9.49-3.171a4.736,4.736,0,0,0-2.989,8.988l14.178,4.737c0.143,0.048.287,0.088,0.431,0.121l0.969,4.856-14.085,0a4.737,4.737,0,0,0,0,9.474l22.5,0,15.3,7.669v6.547s0,0,0,0a14.522,14.522,0,0,0-8.249,2.483,13.476,13.476,0,0,0-3.81,4.182A23.114,23.114,0,0,0,19.86,53.724,39.241,39.241,0,0,0,9.8,53.316a4.739,4.739,0,0,0-3.427,7.522A34.945,34.945,0,0,1,8.717,64.62a24.668,24.668,0,0,1,1.551,3.409,20.893,20.893,0,0,0,12.382,13,36.135,36.135,0,0,0,11.733,1.428c0.078,0.1.152,0.2,0.231,0.3,3,3.7,4.855,7.181,4.97,9.483a16.392,16.392,0,0,0,1.369,8.344c2.554,5.586,8.134,8.909,16.491,8.909s13.936-3.323,16.491-8.909A16.236,16.236,0,0,0,75.32,92.4c0.1-2.47,1.958-5.951,4.957-9.653,0.079-.1.152-0.2,0.229-0.293A36.133,36.133,0,0,0,92.233,81.03a20.9,20.9,0,0,0,12.388-13,24.854,24.854,0,0,1,1.551-3.409,34.867,34.867,0,0,1,2.344-3.782,4.739,4.739,0,0,0-3.428-7.522,39.231,39.231,0,0,0-10.052.407,23.126,23.126,0,0,0-11.357,5.591,13.56,13.56,0,0,0-3.113-3.653,14.584,14.584,0,0,0-8.943-3.012s0,0,0-.006V46.1l15.3-7.669,22.5,0A4.737,4.737,0,0,0,109.431,28.957Zm-83.6,43.151a11.508,11.508,0,0,1-6.658-7.245q-0.309-.873-0.69-1.757a14.427,14.427,0,0,1,9.931,7.911l0.613,1.247,0.128,0.5A16.437,16.437,0,0,1,25.834,72.108Zm60.637-1.09A14.43,14.43,0,0,1,96.4,63.105q-0.38.884-.69,1.757a11.509,11.509,0,0,1-6.663,7.248,16.419,16.419,0,0,1-3.319.657l0.128-.5Zm-10.123-3.14v0.351a13.657,13.657,0,0,1-3.407,8.546c-4.369,5.393-7.094,10.594-7.094,15.684l0.055,0.72a7.148,7.148,0,0,1-.559,3.453c-0.959,2.1-3.118,3.383-7.9,3.383s-6.94-1.286-7.9-3.383a7.088,7.088,0,0,1-.559-3.422c0-.058.055-0.75,0.055-0.75,0-5.09-2.725-10.291-7.092-15.682a13.66,13.66,0,0,1-3.409-8.549V67.878c0-2.711.749-4.163,1.99-5.054a5.862,5.862,0,0,1,3.328-.7,23.656,23.656,0,0,1,4.9.616,34.861,34.861,0,0,0,17.353,0A23.7,23.7,0,0,1,71,62.123a5.8,5.8,0,0,1,3.571.863C75.676,63.9,76.348,65.335,76.348,67.878Z" transform="translate(-0.719 -0.531)"></path></svg> 